<?xml version="1.0" encoding="utf-8"?>
<svg width="1024" height="1024" viewBox="0 0 1024 1024" fill="none" xmlns="http://www.w3.org/2000/svg">
  <defs>
    <clipPath id="clip_path_1">
      <rect width="1024" height="1024" />
    </clipPath>
    <linearGradient id="gradient_2" gradientUnits="userSpaceOnUse" x1="1024" y1="0" x2="512" y2="1024">
      <stop offset="0" stop-color="#62B5EE" />
      <stop offset="1" stop-color="#124EC5" />
    </linearGradient>
  </defs>
  <g clip-path="url(#clip_path_1)">
    <g fill="url(#gradient_2)" transform="translate(0 -0)">
      <path d="M624 0C844.944 0 1024 179.056 1024 400L1024 624C1024 844.944 844.944 1024 624 1024L400 1024C179.056 1024 0 844.944 0 624L0 400C0 179.056 179.056 0 400 0L624 0Z" />
      <path d="M0 400Q0 390.254 0.481817 380.52Q0.963635 370.786 1.92611 361.087Q2.88858 351.388 4.3294 341.748Q5.77021 332.108 7.68589 322.549Q9.60157 312.991 11.9875 303.537Q14.3734 294.083 17.2239 284.757Q20.0743 275.431 23.3824 266.255Q26.6904 257.079 30.4482 248.075Q34.2059 239.071 38.4043 230.261Q42.6026 221.451 47.2315 212.855Q51.8603 204.26 56.9086 195.901Q61.9568 187.542 67.4121 179.439Q72.8675 171.335 78.717 163.507Q84.5664 155.679 90.7958 148.146Q97.0252 140.612 103.62 133.391Q110.214 126.17 117.157 119.279Q124.101 112.387 131.376 105.842Q138.652 99.2975 146.243 93.1148Q153.833 86.9322 161.72 81.1266Q169.607 75.321 177.772 69.9066Q185.936 64.4921 194.359 59.4817Q202.781 54.4714 211.441 49.8773Q220.101 45.2831 228.978 41.1162Q237.855 36.9494 246.927 33.2198Q255.999 29.4903 265.244 26.207Q274.49 22.9237 283.886 20.0947Q293.283 17.2656 302.808 14.8976Q312.333 12.5296 321.964 10.6282Q331.595 8.72693 341.308 7.29692Q351.021 5.86692 360.793 4.91166Q370.565 3.95641 380.373 3.4782Q390.181 3 400 3L624 3Q633.815 3 643.618 3.47778Q653.422 3.95556 663.19 4.90997Q672.957 5.86438 682.666 7.29313Q692.375 8.72187 702.002 10.6215Q711.629 12.5211 721.15 14.8871Q730.671 17.2531 740.064 20.0797Q749.457 22.9062 758.699 26.1867Q767.94 29.4671 777.009 33.1934Q786.078 36.9197 794.951 41.083Q803.825 45.2463 812.482 49.8366Q821.139 54.4268 829.559 59.4329Q837.979 64.4391 846.141 69.849Q854.304 75.259 862.189 81.0598Q870.074 86.8606 877.663 93.0382Q885.252 99.2158 892.527 105.755Q899.802 112.295 906.744 119.181Q913.687 126.067 920.281 133.282Q926.875 140.498 933.105 148.026Q939.334 155.554 945.184 163.376Q951.035 171.198 956.491 179.295Q961.948 187.392 966.997 195.746Q972.047 204.099 976.678 212.688Q981.309 221.277 985.51 230.081Q989.711 238.885 993.472 247.883Q997.233 256.881 1000.54 266.052Q1003.86 275.222 1006.71 284.542Q1009.56 293.863 1011.96 303.311Q1014.35 312.759 1016.27 322.312Q1018.19 331.865 1019.63 341.5Q1021.08 351.135 1022.05 360.829Q1023.02 370.523 1023.5 380.253Q1023.99 389.982 1024 399.724Q1023.99 389.909 1023.5 380.106Q1023.02 370.303 1022.05 360.535Q1021.08 350.768 1019.63 341.06Q1018.19 331.352 1016.27 321.727Q1014.35 312.101 1011.96 302.582Q1009.57 293.062 1006.71 283.671Q1003.86 274.28 1000.54 265.041Q997.233 255.801 993.472 246.735Q989.712 237.669 985.511 228.798Q981.31 219.928 976.679 211.274Q972.048 202.62 966.998 194.203Q961.948 185.787 956.492 177.628Q951.035 169.47 945.185 161.589Q939.335 153.707 933.106 146.123Q926.876 138.538 920.282 131.268Q913.688 123.998 906.745 117.06Q899.802 110.122 892.528 103.533Q885.253 96.9435 877.664 90.7192Q870.075 84.4948 862.19 78.6501Q854.304 72.8055 846.142 67.3546Q837.979 61.9037 829.56 56.8597Q821.14 51.8158 812.483 47.1908Q803.825 42.5659 794.952 38.3711Q786.078 34.1763 777.01 30.4218Q767.941 26.6672 758.699 23.362Q749.457 20.0568 740.064 17.2088Q730.671 14.3609 721.15 11.977Q711.629 9.59316 702.002 7.67915Q692.376 5.76515 682.667 4.3256Q672.958 2.88605 663.19 1.92442Q653.422 0.962788 643.618 0.481394Q633.815 0 624 0L400 0Q390.181 0 380.373 0.481817Q370.565 0.963635 360.793 1.92611Q351.021 2.88858 341.308 4.3294Q331.595 5.77021 321.964 7.68589Q312.333 9.60157 302.808 11.9875Q293.283 14.3734 283.886 17.2239Q274.49 20.0743 265.244 23.3824Q255.999 26.6904 246.927 30.4482Q237.855 34.2059 228.978 38.4043Q220.101 42.6026 211.441 47.2315Q202.781 51.8603 194.359 56.9086Q185.936 61.9568 177.772 67.4121Q169.607 72.8675 161.72 78.717Q153.833 84.5664 146.243 90.7958Q138.652 97.0252 131.376 103.62Q124.101 110.214 117.157 117.157Q110.214 124.101 103.62 131.376Q97.0252 138.652 90.7958 146.243Q84.5664 153.833 78.717 161.72Q72.8675 169.607 67.4121 177.772Q61.9568 185.936 56.9086 194.359Q51.8603 202.781 47.2315 211.441Q42.6026 220.101 38.4043 228.978Q34.2059 237.855 30.4482 246.927Q26.6904 255.999 23.3824 265.244Q20.0743 274.49 17.2239 283.886Q14.3734 293.283 11.9875 302.808Q9.60157 312.333 7.68589 321.964Q5.77021 331.595 4.3294 341.308Q2.88858 351.021 1.92611 360.793Q0.963635 370.565 0.481817 380.373Q0 390.181 0 400Z" fill="#76BAF2" fill-rule="evenodd" />
    </g>
    <g transform="translate(174.662 193.498)">
      <path d="M0 523.004L86.7591 0L296.281 0C354.003 0 395.334 12.582 420.272 37.7462C445.211 62.7932 454.402 94.9216 447.846 134.131C442.46 164.796 429.229 189.668 408.154 208.745C387.079 227.706 362.55 240.289 334.567 246.492L333.513 251.583C353.3 252.285 371.097 257.845 386.904 268.262C402.827 278.561 414.652 293.074 422.38 311.801C430.224 330.528 432.04 352.766 427.824 378.516C423.258 406.021 412.253 430.717 394.807 452.604C377.478 474.373 354.354 491.579 325.435 504.22C296.632 516.743 262.619 523.004 223.396 523.004L0 523.004L0 523.004ZM125.924 432.589L216.02 432.589C246.695 432.589 270.112 426.62 286.27 414.682C302.427 402.743 312.145 387.001 315.424 367.455C318.819 345.802 314.019 328.129 301.022 314.434C288.026 300.623 268.063 293.718 241.134 293.718L148.579 293.718L125.924 432.589L125.924 432.589ZM161.4 218.929L243.418 218.929C265.898 218.929 285.626 213.018 302.604 201.197C319.698 189.258 329.825 172.989 332.987 152.39C336.148 133.429 331.933 118.213 320.342 106.743C308.867 95.1561 290.954 89.3624 266.6 89.3624L182.827 89.3624L161.4 218.929L161.4 218.929Z" fill="#FFFFFF" transform="translate(0 111.995)" />
      <path d="M208.849 5.19171L192.363 52.18Q192.313 52.322 192.252 52.4596Q192.192 52.5973 192.121 52.7299Q192.05 52.8625 191.969 52.9892Q191.888 53.1159 191.797 53.2361Q191.707 53.3562 191.607 53.469Q191.508 53.5818 191.4 53.6866Q191.292 53.7914 191.176 53.8875Q191.061 53.9837 190.938 54.0707Q190.815 54.1577 190.686 54.2349Q190.557 54.3122 190.423 54.3793Q190.288 54.4464 190.149 54.503Q190.009 54.5595 189.866 54.6052Q189.723 54.6508 189.576 54.6853Q189.43 54.7198 189.281 54.7429Q189.133 54.766 188.983 54.7775Q188.833 54.7891 188.682 54.7891L5.50198 54.7893Q5.38565 54.7893 5.26953 54.7824Q5.15341 54.7754 5.03791 54.7616Q4.9224 54.7477 4.80793 54.7271Q4.69346 54.7063 4.58042 54.6789Q4.46739 54.6514 4.35619 54.6172Q4.245 54.583 4.13603 54.5423Q4.02707 54.5016 3.92073 54.4544Q3.81439 54.4072 3.71105 54.3538Q3.60771 54.3004 3.50773 54.2409Q3.40776 54.1814 3.31151 54.1161Q3.21526 54.0508 3.12307 53.9798Q3.03088 53.9089 2.94309 53.8326Q2.8553 53.7562 2.77221 53.6748Q2.68912 53.5934 2.61103 53.5072Q2.53294 53.421 2.46012 53.3302Q2.38731 53.2395 2.32003 53.1446Q2.25276 53.0497 2.19126 52.951Q2.12976 52.8522 2.07425 52.75Q2.01874 52.6478 1.96943 52.5424Q1.92011 52.437 1.87716 52.3289Q1.83421 52.2208 1.79778 52.1103Q1.76136 51.9999 1.73157 51.8874Q1.70179 51.7749 1.67877 51.6609Q1.65574 51.5469 1.63955 51.4317Q1.62337 51.3165 1.61407 51.2005Q1.60478 51.0846 1.60241 50.9683Q1.60004 50.852 1.60461 50.7357Q1.60918 50.6195 1.62067 50.5037Q1.63215 50.388 1.65052 50.2731Q1.66888 50.1582 1.69406 50.0447Q1.71924 49.9311 1.75115 49.8192Q1.78305 49.7074 1.82156 49.5976L18.3079 2.60926Q18.3577 2.46734 18.4182 2.32967Q18.4788 2.192 18.5498 2.05941Q18.6208 1.92682 18.7018 1.80009Q18.7828 1.67335 18.8733 1.55324Q18.9638 1.43312 19.0633 1.32033Q19.1628 1.20754 19.2707 1.10274Q19.3786 0.99795 19.4943 0.901776Q19.6099 0.805602 19.7326 0.718619Q19.8553 0.631635 19.9843 0.554359Q20.1134 0.477083 20.248 0.409974Q20.3826 0.342864 20.522 0.286319Q20.6613 0.229774 20.8046 0.18413Q20.9479 0.138485 21.0943 0.104013Q21.2407 0.0695402 21.3894 0.0464441Q21.538 0.023348 21.688 0.0117655Q21.8379 0.000183105 21.9883 0.000183105L205.169 7.62939e-06Q205.285 7.46808e-06 205.401 0.0069402Q205.517 0.0138729 205.633 0.0277139Q205.748 0.0415549 205.863 0.0622549Q205.977 0.0829549 206.09 0.11044Q206.203 0.137926 206.314 0.172099Q206.426 0.206272 206.535 0.247012Q206.643 0.287751 206.75 0.334912Q206.856 0.382073 206.96 0.435488Q207.063 0.488902 207.163 0.548381Q207.263 0.60786 207.359 0.673191Q207.455 0.738522 207.547 0.809473Q207.64 0.880424 207.727 0.956743Q207.815 1.03306 207.898 1.11448Q207.981 1.19589 208.06 1.28212Q208.138 1.36834 208.21 1.45906Q208.283 1.54979 208.351 1.64469Q208.418 1.73959 208.479 1.83833Q208.541 1.93708 208.596 2.03931Q208.652 2.14154 208.701 2.2469Q208.75 2.35226 208.793 2.46037Q208.836 2.56848 208.873 2.67896Q208.909 2.78944 208.939 2.90189Q208.969 3.01434 208.992 3.12837Q209.015 3.2424 209.031 3.3576Q209.047 3.47279 209.057 3.58875Q209.066 3.70471 209.068 3.82101Q209.071 3.93732 209.066 4.05356Q209.061 4.1698 209.05 4.28556Q209.038 4.40132 209.02 4.51619Q209.002 4.63106 208.977 4.74463Q208.951 4.8582 208.919 4.97007Q208.888 5.08194 208.849 5.19171Z" fill="#FFFFFF" fill-rule="evenodd" transform="translate(463.329 78.76)" />
      <path d="M63.3351 0L109.579 0Q109.692 0 109.805 0.00651689Q109.917 0.0130338 110.029 0.0260458Q110.141 0.0390578 110.252 0.0585214Q110.364 0.0779851 110.473 0.103835Q110.583 0.129686 110.691 0.161836Q110.799 0.193986 110.905 0.23233Q111.011 0.270673 111.115 0.315081Q111.219 0.359489 111.32 0.409813Q111.421 0.460137 111.519 0.516209Q111.616 0.572281 111.711 0.633914Q111.805 0.695547 111.896 0.762535Q111.987 0.829522 112.073 0.901641Q112.16 0.97376 112.243 1.05077Q112.325 1.12778 112.403 1.20942Q112.481 1.29106 112.554 1.37706Q112.627 1.46306 112.694 1.55313Q112.762 1.64321 112.825 1.73705Q112.887 1.8309 112.944 1.9282Q113.001 2.0255 113.053 2.12593Q113.104 2.22637 113.149 2.3296Q113.195 2.43283 113.234 2.53852Q113.274 2.6442 113.307 2.75198Q113.34 2.85977 113.367 2.96929Q113.394 3.07881 113.414 3.1897Q113.435 3.3006 113.449 3.4125Q113.463 3.52439 113.471 3.63692Q113.478 3.74944 113.48 3.86222Q113.481 3.975 113.475 4.08765Q113.47 4.2003 113.458 4.31245Q113.446 4.4246 113.428 4.53588Q113.409 4.64715 113.385 4.75718Q113.36 4.86721 113.329 4.97562L55.17 207.771Q55.1265 207.923 55.071 208.07Q55.0156 208.218 54.9484 208.36Q54.8812 208.502 54.8027 208.639Q54.7243 208.776 54.6351 208.905Q54.5458 209.035 54.4465 209.157Q54.3471 209.28 54.2381 209.393Q54.1292 209.507 54.0115 209.612Q53.8938 209.716 53.768 209.811Q53.6422 209.906 53.5091 209.99Q53.3761 210.075 53.2367 210.148Q53.0973 210.221 52.9525 210.283Q52.8076 210.345 52.6583 210.395Q52.5089 210.445 52.356 210.483Q52.2031 210.52 52.0476 210.546Q51.8922 210.571 51.7352 210.584Q51.5782 210.596 51.4207 210.597L5.17618 210.597Q5.0634 210.597 4.9508 210.59Q4.83821 210.583 4.72618 210.57Q4.61415 210.557 4.50306 210.538Q4.39197 210.519 4.28219 210.493Q4.17241 210.467 4.06431 210.435Q3.95621 210.403 3.85014 210.364Q3.74408 210.326 3.64041 210.281Q3.53674 210.237 3.43581 210.187Q3.33487 210.136 3.23702 210.08Q3.13916 210.024 3.04471 209.963Q2.95026 209.901 2.85953 209.834Q2.76879 209.767 2.68208 209.695Q2.59537 209.623 2.51297 209.546Q2.43058 209.469 2.35277 209.387Q2.27495 209.305 2.20199 209.219Q2.12903 209.133 2.06116 209.043Q1.99328 208.953 1.93073 208.859Q1.86818 208.766 1.81115 208.668Q1.75412 208.571 1.70281 208.471Q1.6515 208.37 1.60608 208.267Q1.56066 208.164 1.52128 208.058Q1.48191 207.952 1.4487 207.845Q1.41549 207.737 1.38857 207.627Q1.36165 207.518 1.3411 207.407Q1.32055 207.296 1.30644 207.184Q1.29233 207.072 1.28471 206.96Q1.2771 206.847 1.27599 206.734Q1.27489 206.621 1.2803 206.509Q1.28572 206.396 1.29763 206.284Q1.30955 206.172 1.32792 206.061Q1.3463 205.949 1.37107 205.839Q1.39585 205.729 1.42694 205.621L59.5858 2.82516Q59.6293 2.67376 59.6847 2.52635Q59.7402 2.37894 59.8074 2.23649Q59.8746 2.09404 59.9531 1.95747Q60.0315 1.8209 60.1207 1.6911Q60.2099 1.5613 60.3093 1.43911Q60.4087 1.31693 60.5176 1.20315Q60.6266 1.08938 60.7443 0.984762Q60.862 0.880142 60.9878 0.785357Q61.1136 0.690571 61.2466 0.606236Q61.3797 0.521902 61.5191 0.448568Q61.6584 0.375234 61.8033 0.313378Q61.9482 0.251522 62.0975 0.201546Q62.2469 0.151571 62.3998 0.113802Q62.5527 0.0760332 62.7082 0.0507163Q62.8636 0.0253995 63.0206 0.0126998Q63.1776 0 63.3351 0Z" fill="#FFFFFF" fill-rule="evenodd" transform="translate(507.861 0)" />
    </g>
  </g>
</svg>